<?xml version="1.0" encoding="utf-8"?>
<!-- Generator: Adobe Illustrator 18.1.1, SVG Export Plug-In . SVG Version: 6.00 Build 0)  -->
<svg version="1.1" id="Layer_1" xmlns="http://www.w3.org/2000/svg" xmlns:xlink="http://www.w3.org/1999/xlink" x="0px" y="0px"
	 viewBox="0 0 30 30" enable-background="new 0 0 30 30" xml:space="preserve">
<path id="Behance_3_" fill="#FFFFFF" d="M26.4,12.3h-7.1v-1.8h7.1V12.3z M14.6,19.5c0.5,0.7,0.7,1.6,0.7,2.6c0,1-0.3,2-0.8,2.8
	c-0.3,0.5-0.7,1-1.2,1.4c-0.6,0.4-1.2,0.7-2,0.9c-0.8,0.2-1.6,0.2-2.5,0.2H0.9V9.9h8.5c2.1,0,3.6,0.7,4.5,1.9
	c0.5,0.7,0.8,1.6,0.8,2.7c0,1.1-0.3,1.9-0.8,2.6c-0.3,0.4-0.7,0.7-1.3,1C13.5,18.3,14.1,18.8,14.6,19.5z M5,16.8h3.7
	c0.8,0,1.4-0.1,1.9-0.4c0.5-0.3,0.7-0.8,0.7-1.5c0-0.8-0.3-1.4-0.9-1.6c-0.5-0.2-1.2-0.3-2.1-0.3H5V16.8z M11.6,21.9
	c0-0.9-0.4-1.5-1.1-1.9c-0.4-0.2-1-0.3-1.8-0.3H5v4.7h3.7c0.8,0,1.4-0.1,1.8-0.3C11.2,23.7,11.6,22.9,11.6,21.9z M29,19
	c0.1,0.6,0.1,1.4,0.1,2.5h-9.1c0.1,1.3,0.5,2.1,1.3,2.7c0.5,0.3,1.1,0.5,1.8,0.5c0.7,0,1.4-0.2,1.8-0.6c0.3-0.2,0.5-0.5,0.7-0.9h3.4
	c-0.1,0.7-0.5,1.5-1.2,2.3c-1.1,1.2-2.7,1.8-4.7,1.8c-1.7,0-3.1-0.5-4.4-1.5c-1.3-1-1.9-2.7-1.9-5c0-2.2,0.6-3.8,1.7-5
	c1.2-1.2,2.7-1.7,4.5-1.7c1.1,0,2.1,0.2,3,0.6c0.9,0.4,1.6,1,2.2,1.9C28.5,17.2,28.8,18,29,19z M25.7,19.3c-0.1-0.9-0.4-1.5-0.9-2
	c-0.5-0.5-1.2-0.7-1.9-0.7c-0.8,0-1.5,0.2-2,0.7c-0.5,0.5-0.8,1.1-0.9,1.9H25.7z"/>
</svg>
