<?xml version="1.0" encoding="utf-8"?>
<!-- Generator: Adobe Illustrator 18.1.1, SVG Export Plug-In . SVG Version: 6.00 Build 0)  -->
<svg version="1.1" id="Layer_1" xmlns="http://www.w3.org/2000/svg" xmlns:xlink="http://www.w3.org/1999/xlink" x="0px" y="0px"
	 viewBox="0 0 30 30" enable-background="new 0 0 30 30" xml:space="preserve">
<path id="Facebook_3_" fill="#FFFFFF" d="M12.2,6.4c0,0.7,0,3.6,0,3.6H9.5v4.5h2.7v13.3h5.5V14.5h3.7c0,0,0.3-2.1,0.5-4.5
	c-0.5,0-4.2,0-4.2,0s0-2.6,0-3.1c0-0.5,0.6-1.1,1.2-1.1c0.6,0,1.8,0,3,0c0-0.6,0-2.7,0-4.6c-1.5,0-3.3,0-4.1,0
	C12.1,1.3,12.2,5.8,12.2,6.4z"/>
</svg>
