<?xml version="1.0" encoding="utf-8"?>
<!-- Generator: Adobe Illustrator 18.1.1, SVG Export Plug-In . SVG Version: 6.00 Build 0)  -->
<svg version="1.1" id="Layer_1" xmlns="http://www.w3.org/2000/svg" xmlns:xlink="http://www.w3.org/1999/xlink" x="0px" y="0px"
	 viewBox="0 0 30 30" enable-background="new 0 0 30 30" xml:space="preserve">
<path id="LinkedIn_3_" fill="#FFFFFF" d="M26.9,18.9v8.8h-5.1v-8.2c0-2.1-0.7-3.5-2.6-3.5c-1.4,0-2.3,0.9-2.6,1.9
	c-0.1,0.3-0.2,0.8-0.2,1.2v8.6h-5.1c0,0,0.1-13.9,0-15.4h5.1v2.2c0,0,0,0,0,0h0v0c0.7-1,1.9-2.5,4.6-2.5
	C24.4,11.9,26.9,14.1,26.9,18.9z M6,4.9C4.2,4.9,3.1,6,3.1,7.6c0,1.5,1.1,2.7,2.8,2.7h0c1.8,0,2.9-1.2,2.9-2.7C8.8,6,7.7,4.9,6,4.9z
	 M3.4,27.7h5.1V12.3H3.4V27.7z"/>
</svg>
