<?xml version="1.0" encoding="utf-8"?>
<!-- Generator: Adobe Illustrator 16.0.4, SVG Export Plug-In . SVG Version: 6.00 Build 0)  -->
<!DOCTYPE svg PUBLIC "-//W3C//DTD SVG 1.1//EN" "http://www.w3.org/Graphics/SVG/1.1/DTD/svg11.dtd">
<svg version="1.1" id="Layer_1" xmlns="http://www.w3.org/2000/svg" xmlns:xlink="http://www.w3.org/1999/xlink" x="0px" y="0px"
	 width="273.147px" height="95.558px" viewBox="0 0 273.147 95.558" enable-background="new 0 0 273.147 95.558"
	 xml:space="preserve">
<g>
	<polygon fill="#808285" points="156.884,2.712 179.9,0.219 148.326,16.482 	"/>
	<polygon fill="#4D4D4F" points="129.681,15.484 145.673,17.755 124.095,39.357 	"/>
	<polygon fill="#636466" points="130.595,14.607 155.357,3.215 146.81,16.903 	"/>
	<polygon fill="#414042" points="81.148,63.438 100.13,41.151 110.556,85.607 	"/>
	<polygon fill="#0067AB" points="101.474,39.616 117.154,24.127 121.853,40.974 	"/>
	<polygon fill="#6D6E71" points="118.076,23.64 128.527,15.957 122.773,40.44 	"/>
	<polygon fill="#58595B" points="122.138,42.018 108.14,71.146 101.042,40.591 	"/>
	<polygon fill="#414042" points="14.235,82.904 62.615,36.07 50.176,67.018 	"/>
	<polygon fill="#4D4D4F" points="25.202,94.279 50.898,69.543 53.321,75.549 	"/>
	<polygon fill="#636466" points="57.958,63.416 79.437,63.416 110.976,87.221 	"/>
	<polygon fill="#58595B" points="53.869,60.369 51.248,66.963 61.5,70.133 	"/>
	<polygon fill="#414042" points="58.601,64.828 67.942,76.736 98.912,82.904 	"/>
	<polygon fill="#636466" points="54.306,59.287 56.788,62.395 59.708,45.97 	"/>
	<polygon fill="#77787B" points="57.834,62.404 78.025,62.404 60.781,45.97 	"/>
	<polygon fill="#636466" points="55.115,41.82 46.882,49.789 23.478,19.836 	"/>
	<polygon fill="#77787B" points="22.065,19.767 27.944,27.194 0.433,12.284 	"/>
</g>
<path fill="#636466" d="M205.505,76.195c-0.25,0.156-0.584,0.307-0.998,0.447s-0.896,0.211-1.443,0.211
	c-0.65,0-1.238-0.113-1.758-0.34c-0.52-0.229-0.963-0.535-1.326-0.924c-0.365-0.387-0.646-0.834-0.846-1.344
	c-0.201-0.51-0.299-1.049-0.299-1.619c0-0.621,0.113-1.195,0.34-1.727c0.227-0.535,0.535-0.994,0.928-1.381
	c0.391-0.387,0.848-0.691,1.373-0.91s1.086-0.33,1.68-0.33c0.213,0,0.426,0.014,0.641,0.041c0.215,0.029,0.422,0.07,0.617,0.125
	s0.375,0.117,0.539,0.188s0.307,0.148,0.422,0.234c-0.037,0.062-0.068,0.113-0.094,0.152c-0.021,0.039-0.047,0.08-0.07,0.125
	c-0.023,0.041-0.049,0.09-0.08,0.145c-0.033,0.057-0.07,0.127-0.119,0.213c-0.25-0.156-0.543-0.275-0.875-0.354
	s-0.652-0.115-0.957-0.115c-0.492,0-0.955,0.094-1.385,0.281c-0.432,0.188-0.805,0.443-1.123,0.77
	c-0.316,0.322-0.566,0.699-0.75,1.127c-0.186,0.426-0.277,0.879-0.277,1.355c0,0.455,0.082,0.891,0.248,1.311
	c0.164,0.418,0.398,0.787,0.703,1.104c0.307,0.316,0.67,0.572,1.094,0.764c0.422,0.191,0.891,0.287,1.408,0.287
	c0.227,0,0.447-0.018,0.658-0.053s0.406-0.084,0.588-0.141c0.18-0.059,0.336-0.119,0.475-0.182c0.137-0.062,0.244-0.125,0.322-0.189
	L205.505,76.195z"/>
<path fill="#636466" d="M209.955,76.76v-8.387h2.033c0.352,0,0.693,0.049,1.021,0.148c0.328,0.098,0.619,0.248,0.875,0.451
	c0.254,0.205,0.457,0.459,0.609,0.764c0.154,0.307,0.23,0.67,0.23,1.092c0,0.471-0.105,0.918-0.316,1.338
	c-0.213,0.426-0.561,0.748-1.047,0.977c0.07,0.117,0.164,0.273,0.283,0.469c0.117,0.197,0.246,0.41,0.387,0.641
	c0.141,0.232,0.287,0.471,0.439,0.723c0.152,0.25,0.301,0.49,0.441,0.717s0.271,0.434,0.387,0.621
	c0.119,0.189,0.213,0.338,0.283,0.447h-0.975c-0.062-0.094-0.146-0.223-0.248-0.389c-0.102-0.164-0.213-0.348-0.34-0.551
	c-0.125-0.203-0.258-0.42-0.4-0.646c-0.141-0.227-0.275-0.451-0.41-0.668c-0.135-0.221-0.26-0.428-0.381-0.623
	c-0.123-0.197-0.227-0.365-0.311-0.506c-0.08,0.016-0.162,0.023-0.248,0.023s-0.172,0-0.258,0h-1.258v3.359H209.955z
	 M210.753,72.637H212c0.375,0,0.689-0.062,0.939-0.188s0.447-0.279,0.594-0.463c0.145-0.186,0.246-0.381,0.305-0.588
	s0.088-0.396,0.088-0.57c0-0.211-0.041-0.418-0.123-0.621c-0.082-0.205-0.201-0.385-0.359-0.547
	c-0.156-0.16-0.355-0.289-0.598-0.389c-0.244-0.096-0.521-0.145-0.834-0.145h-1.258V72.637z"/>
<path fill="#636466" d="M219.986,76.76v-8.387h5.285v0.729h-4.488v3.064h4.018v0.754h-4.018v3.088h4.652v0.752H219.986z"/>
<path fill="#636466" d="M235.513,76.76c-0.158-0.359-0.342-0.803-0.553-1.328c-0.213-0.523-0.432-1.08-0.658-1.668h-3.219
	c-0.227,0.588-0.445,1.145-0.658,1.668c-0.211,0.525-0.395,0.969-0.551,1.328h-0.799c0.117-0.281,0.273-0.656,0.469-1.121
	c0.195-0.467,0.406-0.979,0.635-1.533c0.229-0.557,0.461-1.133,0.705-1.732c0.242-0.598,0.477-1.176,0.705-1.732
	c0.227-0.557,0.436-1.064,0.629-1.525c0.191-0.463,0.35-0.84,0.475-1.129c0.117,0.289,0.273,0.666,0.469,1.129
	c0.197,0.461,0.408,0.969,0.635,1.525s0.463,1.135,0.711,1.732c0.246,0.6,0.484,1.176,0.711,1.732
	c0.227,0.555,0.436,1.066,0.627,1.533c0.191,0.465,0.35,0.84,0.477,1.121H235.513z M232.576,70.043
	c-0.158,0.367-0.344,0.816-0.559,1.35c-0.215,0.531-0.436,1.092-0.664,1.68h2.678c-0.234-0.588-0.457-1.148-0.668-1.68
	c-0.213-0.533-0.396-0.982-0.553-1.35c-0.016-0.031-0.035-0.086-0.059-0.16s-0.043-0.143-0.059-0.205
	c-0.018,0.062-0.035,0.131-0.059,0.205S232.591,70.012,232.576,70.043z"/>
<path fill="#636466" d="M244.437,68.373v0.764h-2.23v7.623h-0.811v-7.623h-2.209v-0.764H244.437z"/>
<path fill="#636466" d="M249.099,68.373h0.811v8.387h-0.811V68.373z"/>
<path fill="#636466" d="M255.238,68.373c0.109,0.268,0.236,0.58,0.381,0.941c0.146,0.361,0.301,0.742,0.465,1.15
	s0.334,0.828,0.506,1.262s0.34,0.857,0.506,1.264c0.164,0.406,0.318,0.789,0.461,1.15c0.146,0.359,0.273,0.672,0.385,0.941
	l0.115,0.373l0.117-0.373c0.109-0.27,0.238-0.582,0.383-0.941c0.145-0.361,0.299-0.744,0.465-1.15
	c0.164-0.406,0.332-0.83,0.504-1.264s0.34-0.854,0.504-1.262c0.166-0.408,0.32-0.789,0.465-1.15s0.271-0.674,0.383-0.941h0.809
	c-0.125,0.291-0.283,0.666-0.475,1.129c-0.191,0.461-0.4,0.971-0.629,1.527c-0.227,0.555-0.465,1.131-0.709,1.732
	c-0.248,0.598-0.484,1.172-0.711,1.725s-0.439,1.062-0.635,1.527c-0.197,0.465-0.354,0.844-0.471,1.133
	c-0.115-0.289-0.273-0.668-0.469-1.133s-0.406-0.975-0.633-1.527c-0.229-0.553-0.465-1.127-0.707-1.725
	c-0.242-0.602-0.477-1.178-0.703-1.732c-0.229-0.557-0.439-1.066-0.635-1.527c-0.195-0.463-0.352-0.838-0.469-1.129H255.238z"/>
<path fill="#636466" d="M265.521,76.76v-8.387h5.285v0.729h-4.488v3.064h4.018v0.754h-4.018v3.088h4.652v0.752H265.521z"/>
<path fill="#414042" d="M141.076,62.131c-0.225,0.168-0.537,0.35-0.936,0.545c-0.4,0.195-0.871,0.379-1.408,0.545
	c-0.541,0.168-1.143,0.307-1.801,0.418c-0.66,0.111-1.363,0.168-2.107,0.168c-1.59,0-3.01-0.273-4.264-0.824
	c-1.256-0.549-2.32-1.289-3.195-2.219s-1.543-2.008-2.01-3.236c-0.465-1.227-0.695-2.529-0.695-3.904
	c0-1.527,0.271-2.932,0.822-4.215c0.549-1.285,1.297-2.394,2.244-3.325c0.949-0.931,2.061-1.656,3.336-2.179
	c1.273-0.518,2.627-0.781,4.068-0.781c0.541,0,1.088,0.039,1.648,0.112c0.555,0.075,1.08,0.178,1.576,0.307
	c0.492,0.131,0.93,0.284,1.311,0.461c0.381,0.176,0.674,0.36,0.877,0.543c-0.146,0.223-0.262,0.409-0.346,0.559
	c-0.084,0.148-0.174,0.302-0.266,0.459c-0.094,0.16-0.195,0.34-0.309,0.544c-0.109,0.205-0.26,0.476-0.445,0.812
	c-0.242-0.171-0.525-0.31-0.85-0.42c-0.326-0.113-0.668-0.205-1.02-0.281c-0.354-0.072-0.711-0.129-1.076-0.166
	c-0.361-0.037-0.691-0.057-0.988-0.057c-1.088,0-2.09,0.201-3.01,0.601c-0.92,0.402-1.717,0.944-2.387,1.624
	c-0.668,0.678-1.195,1.465-1.574,2.357c-0.383,0.893-0.572,1.822-0.572,2.789c0,0.949,0.182,1.861,0.543,2.736
	c0.363,0.873,0.865,1.654,1.506,2.344c0.643,0.688,1.414,1.236,2.318,1.646c0.9,0.408,1.889,0.613,2.979,0.613
	c0.578,0,1.135-0.057,1.674-0.168c0.541-0.111,1.029-0.242,1.467-0.391c0.436-0.148,0.801-0.297,1.088-0.447
	c0.289-0.146,0.461-0.258,0.518-0.334L141.076,62.131z"/>
<path fill="#414042" d="M161.607,63.582V43.348h5.523c1.061,0,2.033,0.138,2.916,0.417c0.885,0.28,1.648,0.694,2.287,1.242
	c0.643,0.549,1.141,1.219,1.494,2.013c0.354,0.792,0.531,1.7,0.531,2.722c0,0.559-0.057,1.111-0.168,1.66s-0.293,1.078-0.543,1.592
	c-0.252,0.512-0.574,0.986-0.963,1.424c-0.391,0.436-0.865,0.803-1.424,1.102c0.744,1.172,1.553,2.469,2.428,3.893
	c0.873,1.422,1.758,2.812,2.652,4.17h-3.656c-0.373-0.574-0.76-1.18-1.16-1.812s-0.799-1.262-1.199-1.885s-0.791-1.236-1.172-1.842
	c-0.381-0.604-0.738-1.166-1.074-1.688h-0.559h-2.846v7.227H161.607z M164.675,53.482h2.762c0.744,0,1.369-0.127,1.871-0.377
	c0.502-0.252,0.896-0.562,1.186-0.936c0.287-0.371,0.492-0.771,0.613-1.199s0.182-0.818,0.182-1.17c0-0.355-0.061-0.742-0.182-1.16
	s-0.33-0.809-0.627-1.172c-0.299-0.365-0.693-0.671-1.186-0.913c-0.494-0.241-1.104-0.362-1.828-0.362h-2.791V53.482z"/>
<path fill="#0067AB" d="M252.205,43.348v21.156c-0.262-0.334-0.764-0.873-1.508-1.619c-0.742-0.742-1.6-1.6-2.566-2.566
	s-1.996-1.982-3.082-3.041c-1.09-1.061-2.117-2.07-3.084-3.029c-0.967-0.955-1.816-1.812-2.539-2.566
	c-0.727-0.754-1.211-1.289-1.453-1.605l-0.529-0.725l0.084,0.893v13.338h-3.07V42.397c0.205,0.263,0.545,0.635,1.02,1.117
	c0.473,0.485,1.033,1.046,1.674,1.688c0.643,0.643,1.35,1.335,2.121,2.084c0.771,0.744,1.553,1.498,2.344,2.262
	c0.791,0.762,1.57,1.51,2.344,2.246c0.771,0.734,1.479,1.416,2.121,2.049c0.641,0.633,1.195,1.191,1.66,1.676
	c0.463,0.482,0.791,0.846,0.975,1.088l0.531,0.779l-0.082-0.949V43.348H252.205z"/>
<path fill="#0067AB" d="M214.005,50.035c-0.4-1.236-1.043-2.354-1.926-3.353c-0.883-0.996-2.031-1.799-3.445-2.416
	c-1.414-0.612-3.143-0.919-5.189-0.919h-5.08v2.937h3.041v-0.007h2.875c0.895,0,1.771,0.145,2.637,0.432
	c0.865,0.291,1.643,0.739,2.33,1.345c0.689,0.604,1.246,1.363,1.676,2.273c0.428,0.912,0.641,1.98,0.641,3.209
	c0,1.154-0.191,2.172-0.572,3.057c-0.381,0.883-0.912,1.627-1.59,2.23c-0.68,0.607-1.48,1.066-2.4,1.383
	c-0.92,0.314-1.92,0.473-2.998,0.473h-2.598V47.637h-3.041v15.945h6.084c1.375,0,2.678-0.227,3.906-0.684
	c1.229-0.455,2.307-1.111,3.236-1.965c0.932-0.855,1.666-1.896,2.205-3.113s0.809-2.582,0.809-4.088
	C214.605,52.506,214.406,51.271,214.005,50.035z"/>
<path fill="#0067AB" d="M272.117,50.035c-0.4-1.236-1.043-2.354-1.928-3.353c-0.883-0.996-2.031-1.799-3.443-2.416
	c-1.414-0.612-3.145-0.919-5.191-0.919h-5.078v15.984h3.041V46.278h2.875c0.893,0,1.771,0.145,2.637,0.432
	c0.865,0.291,1.643,0.739,2.33,1.345c0.688,0.604,1.246,1.363,1.674,2.273c0.428,0.912,0.641,1.98,0.641,3.209
	c0,1.154-0.189,2.172-0.57,3.057c-0.383,0.883-0.912,1.627-1.592,2.23c-0.678,0.607-1.479,1.066-2.398,1.383
	c-0.922,0.314-1.922,0.473-3,0.473h-2.596l0,0h-3.041v2.902h6.084c1.375,0,2.678-0.227,3.906-0.684
	c1.227-0.455,2.307-1.111,3.236-1.965c0.93-0.855,1.664-1.896,2.203-3.113c0.541-1.217,0.811-2.582,0.811-4.088
	C272.716,52.506,272.515,51.271,272.117,50.035z"/>
<path fill="#414042" d="M147.449,57.779l-2.4,5.803h-3.012l9.012-21.185c0.111,0.263,0.311,0.737,0.6,1.425
	c0.287,0.689,0.633,1.512,1.031,2.47c0.4,0.961,0.848,2.022,1.342,3.185c0.49,1.164,0.992,2.342,1.506,3.531
	c0.512,1.189,1.014,2.363,1.506,3.516s0.943,2.213,1.354,3.18s0.758,1.793,1.047,2.471c0.287,0.68,0.488,1.15,0.6,1.408h-3.014
	c-0.092-0.205-0.223-0.5-0.391-0.893c-0.166-0.391-0.359-0.842-0.572-1.354s-0.447-1.068-0.697-1.674
	c-0.252-0.604-0.506-1.232-0.768-1.883h-5.67l1.059-2.568h3.58c-0.262-0.613-0.508-1.205-0.74-1.771s-0.447-1.088-0.643-1.562
	s-0.367-0.889-0.516-1.242c-0.148-0.352-0.262-0.631-0.334-0.834c-0.02-0.039-0.061-0.17-0.127-0.393
	c-0.064-0.225-0.115-0.428-0.152-0.613c-0.037,0.186-0.094,0.389-0.168,0.613c-0.074,0.223-0.119,0.354-0.141,0.393l-2.23,5.41
	L147.449,57.779z"/>
<path fill="#0067AB" d="M219.396,57.779l-2.4,5.803h-3.014l9.014-21.185c0.111,0.263,0.311,0.737,0.6,1.425
	c0.287,0.689,0.633,1.512,1.033,2.47c0.398,0.961,0.846,2.022,1.34,3.185c0.492,1.164,0.994,2.342,1.506,3.531
	s1.014,2.363,1.506,3.516s0.945,2.213,1.354,3.18s0.76,1.793,1.047,2.471c0.289,0.68,0.488,1.15,0.6,1.408h-3.014
	c-0.094-0.205-0.225-0.5-0.391-0.893c-0.166-0.391-0.357-0.842-0.572-1.354s-0.445-1.068-0.697-1.674
	c-0.252-0.604-0.506-1.232-0.768-1.883h-5.664l1.059-2.568h3.574c-0.262-0.613-0.508-1.205-0.74-1.771s-0.447-1.088-0.643-1.562
	s-0.367-0.889-0.516-1.242c-0.148-0.352-0.262-0.631-0.334-0.834c-0.02-0.039-0.061-0.17-0.127-0.393
	c-0.064-0.225-0.115-0.428-0.152-0.613c-0.039,0.186-0.094,0.389-0.168,0.613c-0.076,0.223-0.121,0.354-0.141,0.393l-2.23,5.41
	L219.396,57.779z"/>
<path fill="#414042" d="M189.414,55.211c-0.26-0.613-0.506-1.205-0.738-1.771s-0.445-1.088-0.643-1.562
	c-0.193-0.475-0.367-0.889-0.516-1.242c-0.148-0.352-0.26-0.631-0.334-0.834c-0.02-0.039-0.061-0.17-0.125-0.393
	c-0.066-0.225-0.117-0.428-0.154-0.613c-0.039,0.186-0.094,0.389-0.168,0.613c-0.076,0.223-0.121,0.354-0.141,0.393l-2.23,5.41
	h3.559l1.061,2.568h-5.68l-2.398,5.803h-3.014l9.012-21.185c0.111,0.263,0.311,0.737,0.6,1.425c0.287,0.689,0.633,1.512,1.033,2.47
	c0.398,0.961,0.846,2.022,1.338,3.185c0.494,1.164,0.996,2.342,1.508,3.531s1.014,2.363,1.506,3.516
	c0.494,1.152,0.945,2.213,1.354,3.18c0.41,0.967,0.756,1.793,1.047,2.471c0.289,0.68,0.488,1.15,0.6,1.408h-3.012
	c-0.094-0.205-0.225-0.5-0.393-0.893c-0.166-0.391-0.357-0.842-0.57-1.354c-0.074-0.174-0.154-0.363-0.23-0.549l-0.77-1.863
	c-0.156-0.377-0.471-1.145-0.471-1.145L189.414,55.211z"/>
</svg>
